<svg viewBox="0 0 22 14" fill="none"
  xmlns="http://www.w3.org/2000/svg">
  <path d="M20 12H21V13H20V12Z" fill="#C13CFF"/>
  <path d="M14 7H15V8H16V9H17V8H18V7H19V8H18V9H17V10H18V11H19V12V13H18V12V11H17V10H16V11H15V12V13H14V12V11H15V10H16V9H15V8H14V7Z" fill="#2E82FF"/>
  <path d="M11 7H12V8H13V9H12V8H11H10H9V9H10H11V10H10H9V11V12V13H8V12V11V10H9V9H8V8H9V7H10H11Z" fill="#F8B73E"/>
  <path d="M2 8H3V7H4H5H6H7V8H6H5H4H3V9V10V11V12H4H5H6V11V10H5V9H6H7V10V11V12H6V13H5H4H3V12H2V11V10V9V8Z" fill="#FF44B7"/>
  <path d="M17 1H18H19H20H21V2H20H19V3H20V4H19V5H20V6H19V5H18V4H19V3H18V2H17V1Z" fill="#F8B73E"/>
  <path d="M12 2H13V1H14H15H16V2H15H14H13V3H14H15V4H16V5H15V6H14H13H12V5H13H14H15V4H14H13V3H12V2Z" fill="#C13CFF"/>
  <path fill-rule="evenodd" clip-rule="evenodd" d="M1 1H2V2H1V1ZM3 3H2V2H3V3ZM4 3H3V4H2V5H1V6H2V5H3V4H4V5H5V6H6V5H5V4H4V3ZM5 2V3H4V2H5ZM5 2V1H6V2H5Z" fill="#00DC82"/>
  <path fill-rule="evenodd" clip-rule="evenodd" d="M8 1H10V2H8V1ZM8 5H7V2H8V5ZM9 5V6H8V5H9ZM10 4H9V5H10V6H11V5H10V4ZM10 4H11V2H10V4Z" fill="#2E82FF"/>
</svg>
