<svg viewBox="0 0 230 150" fill="none"
  xmlns="http://www.w3.org/2000/svg">
  <path fill-rule="evenodd" clip-rule="evenodd" d="M15 15H25V25H15V15ZM35 35H25V25H35V35ZM45 35H35V45H25V55H15V65H25V55H35V45H45V55H55V65H65V55H55V45H45V35ZM55 25V35H45V25H55ZM55 25V15H65V25H55ZM115 75H125V85H115H105H95V75H105H115ZM95 95H85V85H95V95ZM105 95H95V105H85V115V125V135H95V125V115V105H105H115V95H105ZM125 85H135V95H125V85ZM135 25H125V35H135V45H145H155V55H145H135H125V65H135H145H155V55H165V45H155V35H145H135V25ZM135 25H145H155H165V15H155H145H135V25ZM25 85H35V95V105V115V125H25V115V105V95V85ZM65 125V135H55H45H35V125H45H55H65ZM65 125V115V105H55V95H65H75V105V115V125H65ZM35 85V75H45H55H65H75V85H65H55H45H35ZM155 75H145V85H155V95H165V105H155V115H145V125V135H155V125V115H165V105H175V115H185V125V135H195V125V115H185V105H175V95H185V85H195V75H185V85H175V95H165V85H155V75ZM185 15H175V25H185V35H195V45H185V55H195V65H205V55H195V45H205V35H195V25H205H215V15H205H195H185ZM85 25H75V35V45V55H85V65H95V55H105V65H115V55H105V45H115V35V25H105V15H95H85V25ZM85 25H95H105V35V45H95V55H85V45V35V25ZM215 125H205V135H215V125Z" fill="#F2F2F2"/>
</svg>
